PathFileType	4	(X/Y/Z)	C:/Users/beibeiliu/ov580/test_trc/User3\sequence.38_training_dense_right.trc
DataRate	CameraRate	NumFrames	NumMarkers	Units	OrigDataRate	OrigDataStartFrame	OrigNumFrames
120	120	22	19	mm	120	30	89
Frame#	Time	ThumbCMC			ThumbMCP			ThumbIP			ThumbTip			IndexMCP			IndexPIP			IndexTip			MiddleMCP			MiddlePIP			MiddleTip			RingMCP			RingPIP			RingTip			PinkyMCP			PinkyPIP			PinkyTip			BackHand1			BackHand2			BackHand3	
		X0	Y0	Z0	X1	Y1	Z1	X2	Y2	Z2	X3	Y3	Z3	X4	Y4	Z4	X5	Y5	Z5	X6	Y6	Z6	X7	Y7	Z7	X8	Y8	Z8	X9	Y9	Z9	X10	Y10	Z10	X11	Y11	Z11	X12	Y12	Z12	X13	Y13	Z13	X14	Y14	Z14	X15	Y15	Z15	X16	Y16	Z16	X17	Y17	Z17	X18	Y18	Z18	
29	0.241667	58.6323	14.0577	-10.3294	39.2659	-3.47405	-30.6391	15.8517	-12.5024	-50.45	4.42446	-22.0287	-68.4576	69.6763	27.4905	-89.7582	62.4669	22.8916	-111.593	55.7256	11.8881	-133.816	87.2351	25.9047	-97.212	77.6224	17.1636	-124.142	59.9283	0.81564	-149.362	102.116	13.0068	-89.0656	93.5866	8.76342	-117.207	83.0089	-3.53091	-139.33	113.471	-1.16822	-76.426	108.192	-3.63678	-100.874	104.884	-6.84951	-120.022	115.517	21.3422	-39.7197	124.657	20.3324	-8.94339	87.3934	36.311	-18.7499	
30	0.25	53.4345	15.5375	-11.9313	34.3873	-0.991212	-31.705	15.4069	-10.9454	-48.5506	3.05682	-20.1192	-64.0851	63.0728	31.2207	-86.4852	60.5661	21.6836	-112.515	53.7464	13.3097	-133.128	83.6724	26.1219	-95.3323	74.3653	18.8282	-124.577	60.6848	1.10261	-148.246	98.6089	14.5382	-90.7029	89.6388	10.8252	-115.948	81.7262	-5.9884	-140.75	108.274	0.027761	-76.5433	101.324	-1.9012	-98.6759	98.4051	-5.24807	-118.479	113.008	20.3943	-38.3547	118.582	20.1884	-10.7548	86.0194	37.0039	-18.8398	
31	0.258333	52.4063	15.4638	-9.85277	31.6648	-1.36293	-33.2602	13.0989	-10.0703	-49.063	-2.28045	-19.9752	-65.5388	65.3049	30.4787	-83.3575	57.55	23.9817	-112.66	52.9188	12.3231	-134.466	82.9145	27.727	-95.6753	74.8519	20.0081	-122.823	57.1885	2.90326	-149.262	94.8403	15.3193	-90.4292	89.2309	9.43816	-116.082	78.32	-1.02857	-136.348	108.804	-0.548376	-76.3719	100.756	-1.95774	-96.7704	93.2389	-4.46915	-118.607	108.946	21.5842	-38.0968	115.947	23.2624	-7.37182	86.4412	35.488	-19.3769	
32	0.266667	50.6969	16.2514	-6.25893	30.7005	-0.782138	-32.4254	10.6523	-9.01563	-50.7372	-0.823564	-19.4456	-67.1664	65.0812	31.7287	-82.1103	54.9559	25.1512	-113.249	50.3296	14.5613	-131.498	82.4664	27.7308	-90.8988	71.3703	22.0277	-122.06	61.2884	2.86629	-147.425	96.3242	15.2171	-87.6268	89.0628	11.3794	-113.851	80.6078	-3.72862	-138.253	108.47	0.333803	-73.6252	105.037	-3.23443	-97.0886	93.198	-6.11191	-120.102	112.862	21.4153	-36.2448	119.089	18.9286	-9.18076	86.635	35.831	-21.5122	
33	0.275	53.61	13.9349	-8.52867	34.1725	-1.81554	-28.7818	15.2138	-11.3773	-49.224	0.831801	-19.3412	-68.3787	63.9721	32.6907	-86.4672	59.0427	25.9745	-111.12	55.6804	13.0153	-132.631	86.7916	25.611	-90.8891	75.3644	21.98	-121.607	62.1672	5.72277	-145.847	99.1368	14.6802	-90.9618	93.5072	10.416	-114.906	86.1345	-3.61828	-136.022	110.547	0.767558	-76.4127	106.548	-2.01319	-97.0024	99.6809	-4.51631	-122.047	113.652	23.0372	-35.962	117.712	20.8104	-10.066	84.149	35.9327	-16.9699	
34	0.283333	56.2982	13.289	-11.6323	35.2585	-1.37632	-33.7825	22.2744	-10.7981	-51.9846	4.50375	-18.647	-70.8623	70.5585	29.1173	-84.8002	60.3231	25.0666	-114.819	57.4177	14.5307	-133.247	84.0771	28.6969	-94.5087	77.889	22.0158	-120.8	64.8607	2.46342	-148.326	99.669	15.5814	-88.4261	96.2031	10.3934	-112.711	83.8253	-2.38544	-139.244	112.024	0.200696	-75.8781	108.285	-2.87549	-97.6627	100.789	-3.19862	-118.499	115.611	19.0775	-34.4073	118.918	18.8721	-6.27235	86.5553	35.147	-20.1644	
35	0.291667	58.4745	14.9703	-8.37199	37.5587	1.08572	-36.4735	20.5797	-7.63615	-55.0029	12.667	-16.501	-74.0308	69.752	33.0703	-87.9811	67.1939	24.2714	-110.549	59.3414	16.7173	-133.3	89.0616	29.0846	-95.8887	81.5975	22.0612	-122.811	71.3443	3.62986	-147.715	105.172	14.6967	-87.2957	95.7054	11.9862	-115.63	89.1834	-3.10722	-140.276	113.184	2.18327	-77.2222	109.5	-1.28578	-93.8137	103.415	-4.11905	-118.337	115.174	23.7327	-34.3642	121.25	19.8907	-3.75902	91.5213	36.0899	-19.1421	
36	0.3	58.7984	16.6189	-12.0274	41.111	2.1732	-33.6574	23.2091	-5.19095	-61.269	14.2832	-14.2757	-77.1978	75.3297	31.8402	-86.1008	67.2483	27.4921	-111.546	64.9459	15.6247	-132.387	88.2498	30.8274	-94.3276	83.6749	22.903	-120.742	68.9096	6.45911	-149.471	105.308	16.5723	-86.2192	98.8019	11.6496	-115.797	89.5519	-1.17426	-138.732	117.785	0.428051	-73.5734	111.928	-0.429202	-100.1	106.264	-0.791265	-115.282	115.595	21.7736	-33.9397	120.508	21.9452	-8.22617	91.715	36.4365	-15.7694	
37	0.308333	61.4003	17.3239	-8.3502	40.4083	6.24724	-34.1995	26.0172	-1.69556	-64.0723	21.6641	-11.8891	-83.0106	76.7933	33.4263	-84.3257	73.4028	28.0301	-110.771	64.1558	20.1699	-135.174	93.804	31.425	-94.0785	88.6744	23.4635	-122.086	75.1101	6.29076	-149.118	108.951	18.7515	-85.8751	101.707	13.8322	-116.018	92.0501	2.94536	-136.734	120.037	1.78281	-75.6975	114.166	0.8953	-99.2503	106.191	-0.105192	-119.175	119.784	23.4792	-32.5543	125.771	21.4632	-8.12747	93.0144	38.2929	-20.9812	
38	0.316667	61.4095	19.4737	-7.54693	42.6533	9.19228	-35.7937	33.6751	0.400879	-66.8488	33.9482	-11.7919	-84.8777	77.9209	35.3531	-87.6752	71.9416	31.5761	-113.457	66.3939	19.968	-136.458	97.5672	31.7785	-92.341	87.9572	28.3982	-120.595	74.1527	11.921	-149.931	107.654	21.2051	-88.5339	106.186	17.0035	-112.388	93.8352	5.70861	-136.697	120.787	3.56641	-72.7539	118.537	1.41102	-94.366	109.792	0.310617	-115.662	118.985	23.3173	-32.3048	123.012	23.6495	-7.23727	94.8629	40.13	-19.3742	
39	0.325	57.9777	20.1216	-7.42428	45.5197	10.7486	-41.3082	44.5925	0.878652	-69.0187	49.6119	-12.1838	-86.5402	74.3738	38.4978	-81.3676	69.5265	36.7477	-110.14	63.4316	26.5695	-135.412	93.2299	36.4775	-93.2969	88.3532	30.4278	-122.961	77.3006	15.0368	-150.697	110.027	22.0468	-89.2383	104.087	20.2935	-113.665	93.9652	8.4414	-138.613	118.652	7.07751	-73.009	118.262	4.39156	-97.2116	111.153	0.422159	-119.765	121.197	23.5633	-33.4428	125.279	21.3673	-4.11175	92.6413	41.1177	-18.5877	
40	0.333333	60.0093	20.2806	-9.0351	47.5173	11.0677	-39.1309	49.2364	1.71484	-69.126	66.0739	-9.11564	-85.4437	73.4147	42.1364	-80.7687	70.3416	38.8927	-108.619	63.2045	30.5299	-136.42	96.424	37.1202	-90.3211	87.8074	36.0064	-117.125	77.7536	24.3662	-149.571	110.998	22.9116	-84.2856	104.34	24.2024	-111.765	98.6476	15.2859	-137.031	123.487	7.41543	-74.1654	120.571	6.54936	-97.7598	115.557	3.86773	-119.487	118.581	26.0512	-33.0588	125.518	24.1783	-4.40817	94.3223	37.8014	-16.6045	
41	0.341667	63.7096	18.0364	-7.96691	48.6973	11.5764	-39.1752	60.9865	4.68574	-69.8316	81.725	-6.81509	-83.9219	71.8126	45.2807	-80.116	68.4337	43.8755	-107.971	61.8169	40.0065	-131.577	93.5285	41.9654	-92.0523	90.2787	39.4174	-118.559	81.4649	31.39	-150.637	110.455	28.1812	-87.274	104.765	30.6251	-108.612	99.3989	23.2156	-139.632	125.086	10.6023	-72.2523	118.434	13.897	-98.2317	118.686	11.9028	-118.081	121.373	28.4373	-30.7435	124.912	23.535	-7.03414	91.5608	39.9843	-14.3531	
42	0.35	68.9459	18.9175	-11.3642	56.0652	13.2999	-42.1536	69.2971	8.19358	-74.3427	94.4891	-1.09808	-84.6953	76.7929	47.3774	-85.0335	71.7891	47.8886	-107.644	65.8638	45.5058	-132.838	98.2039	46.0868	-94.1096	93.6362	46.4594	-117.168	84.1841	43.2189	-150.017	110.003	34.6026	-86.4825	107.994	38.1651	-112.144	101.961	37.3545	-136.053	129.435	17.6143	-75.3256	127.4	21.5869	-96.4419	123.591	24.6173	-120.666	123.523	32.8317	-32.9341	129.303	27.7174	-9.55071	93.9923	42.6061	-19.4215	
43	0.358333	74.6914	23.4799	-17.9268	67.8797	17.8541	-50.4103	81.5973	12.9922	-78.8811	105.53	6.02755	-85.6811	85.6971	54.2148	-86.327	76.4111	58.4048	-117.405	72.4621	55.8517	-138.883	105.337	53.4008	-94.5607	98.2902	57.7786	-123.6	92.7166	55.9254	-153.238	121.32	44.8547	-90.0762	117.375	50.0963	-118.481	117.539	49.1947	-142.892	139.892	29.413	-81.5554	135.992	33.6876	-101.827	136.53	36.6129	-124.853	130.715	40.9308	-38.0971	136.626	37.2187	-14.2646	104.968	47.0777	-21.9439	
44	0.366667	92.8341	26.1601	-31.6467	83.8269	18.779	-61.3347	100.977	13.1587	-87.9339	127.633	7.52756	-91.6042	99.5634	60.3059	-100.829	93.5687	61.4726	-124.582	94.3828	57.1303	-152.147	120.938	60.0541	-105.874	120.204	62.6874	-133.967	114.068	61.7703	-164.907	139.034	51.834	-101.314	136.861	57.8895	-126.28	137.876	56.7657	-151.075	153.649	35.4445	-86.6289	157.913	40.4246	-110.173	155.7	44.6175	-130.82	145.9	49.5536	-49.4437	149.505	41.7166	-18.1092	115.192	52.7794	-30.5662	
45	0.375	102.84	16.316	-38.3101	98.0444	4.93434	-71.3765	118.436	-2.71425	-96.0562	148.734	-6.21512	-93.2368	115.482	40.9745	-107.079	108.393	39.2303	-135.633	109.259	33.285	-163.685	133.88	44.0127	-113.817	132.38	43.9334	-139.574	133.623	40.1195	-173.372	151.618	36.3437	-103.289	153.109	40.1824	-132.283	155.229	39.6931	-157.755	172.202	26.1991	-91.1404	172.457	27.488	-109.234	181.113	31.0054	-133.714	153.013	40.5567	-53.5825	159.995	40.3974	-22.9224	121.002	45.9867	-43.0535	
46	0.383333	101.243	-5.68916	-38.5896	101.499	-22.9796	-66.9855	126.651	-35.1034	-90.0263	150.245	-35.3124	-82.9079	114.862	-1.4502	-112.647	116.878	-10.0576	-137.461	119.658	-19.6593	-164.189	138.509	1.10844	-117.66	137.201	-6.1754	-143.885	139.394	-13.2893	-172.66	154.599	-0.161198	-106.191	156.612	-4.69709	-133.268	159.912	-9.61886	-157.972	177.101	-2.99695	-91.4404	180.975	-7.05268	-113.238	181.41	-7.91398	-131.792	158.477	16.8583	-61.8292	158.563	26.3443	-33.7356	124.507	22.9525	-49.9825	
47	0.391667	98.6819	-12.7787	-29.0678	90.5942	-39.1358	-56.7445	111.302	-57.5161	-74.7084	140.072	-56.0436	-68.0098	107.371	-27.4483	-104.281	111.209	-41.9041	-128.666	107.301	-54.4614	-149.217	133.051	-30.6643	-112.516	128.641	-43.8017	-137.162	125.466	-56.0708	-163.869	148.425	-31.1776	-99.4028	150.516	-42.9458	-125.077	149.311	-52.5056	-145.213	166.638	-31.9639	-83.5773	165.539	-39.474	-102.863	168.594	-44.9084	-122.984	153.883	-0.0860116	-57.6025	152.51	14.0584	-31.2336	119.561	10.1056	-46.479	
48	0.4	85.2872	-10.5095	-18.2624	70.2845	-36.9693	-39.3297	87.5336	-63.4947	-55.6688	110.397	-72.5825	-50.826	91.4685	-43.8585	-93.3186	83.957	-55.6128	-108.902	84.7233	-73.1343	-126.657	110.316	-52.7289	-96.5639	100.192	-66.6807	-115.447	92.8815	-83.82	-139.94	122.937	-54.6707	-85.5937	120.524	-68.3896	-102.561	116.684	-86.1773	-127.481	142.584	-57.8268	-66.9112	140.917	-69.5726	-85.8217	133.863	-77.0536	-103.563	142.058	-19.1957	-46.5744	148.661	-3.12134	-27.4919	112.872	1.63751	-40.4143	
49	0.408333	82.3523	1.90002	-11.3707	59.4968	-18.9979	-31.3411	59.579	-47.6763	-39.7547	80.9341	-67.039	-34.5498	72.0055	-37.4425	-75.8966	59.789	-55.0241	-95.7805	52.1385	-70.7628	-112.124	82.271	-50.0895	-78.7206	69.2598	-71.1128	-98.7907	54.0723	-83.9338	-116.614	95.521	-63.8846	-69.9298	83.0755	-72.555	-85.3168	72.0964	-90.2955	-105.758	108.566	-65.9198	-49.7474	100.383	-80.4696	-66.5469	91.7249	-85.7772	-82.8242	126.596	-31.8517	-37.8254	137.517	-15.8276	-17.639	111.159	0.871949	-33.3955	
50	0.416667	86.6661	23.7335	-12.1859	57.2306	12.0186	-28.2441	47.6723	-16.6187	-34.6878	56.5347	-44.9224	-27.3998	62.6958	-15.7494	-74.1849	46.0346	-26.8515	-89.8702	32.358	-39.761	-103.028	63.2361	-35.9189	-74.8298	45.8982	-43.5014	-87.8062	25.8869	-59.8713	-105.073	71.3257	-50.721	-59.3925	56.0989	-56.8943	-73.5971	37.2693	-70.1969	-91.7867	78.678	-56.3403	-39.8865	65.2424	-61.4837	-55.1518	53.7676	-74.1796	-69.0691	110.433	-30.2479	-32.0665	130.266	-20.9802	-11.8361	114.285	3.39348	-27.7448	
